<?xml version="1.0" encoding="UTF-8" standalone="no"?>
<svg xmlns="http://www.w3.org/2000/svg" xmlns:sodipodi="http://sodipodi.sourceforge.net/DTD/sodipodi-0.dtd" xmlns:inkscape="http://www.inkscape.org/namespaces/inkscape" sodipodi:docname="file_image.svg" version="1.1" width="24px" height="24px" viewBox="0 0 24 24" id="svg75337" inkscape:version="1.3.2 (091e20e, 2023-11-25)">
  <sodipodi:namedview id="nv" pagecolor="#ffffff" inkscape:pageopacity="0"
     inkscape:document-units="px" inkscape:zoom="8" inkscape:cx="12"
     inkscape:cy="12" inkscape:current-layer="layer-icon" />
  <g inkscape:label="Guides" inkscape:groupmode="layer" id="layer-guides"
     style="display:none">
    <rect x="0" y="0" width="24" height="24" id="safe-area"
       style="fill:none;stroke:#ff3b30;stroke-width:0.04;stroke-dasharray:0.5 0.5" />
  </g>
  <g inkscape:label="Icon" inkscape:groupmode="layer" id="layer-icon">
    <path id="file-image-p1" d="M5.6,3.6 H18.4 C19.5,3.6 20.4,4.5 20.4,5.6 V18.4 C20.4,19.5 19.5,20.4 18.4,20.4 H5.6 C4.5,20.4 3.6,19.5 3.6,18.4 V5.6 C3.6,4.5 4.5,3.6 5.6,3.6 Z" style="fill:none;stroke:#000000;stroke-width:1.8;stroke-linecap:round;stroke-linejoin:round;stroke-miterlimit:4" />
    <path id="file-image-p2" d="M5.2,16.8 L9.4,12 L12,15 L14.2,12.6 L18.8,16.8" style="fill:none;stroke:#000000;stroke-width:1.8;stroke-linecap:round;stroke-linejoin:round;stroke-miterlimit:4" />
    <path id="file-image-p3" d="M8.4,8.4m-1.5,0a1.5,1.5 0 1,0 3,0a1.5,1.5 0 0,0 -3,0" style="fill:#000000;fill-opacity:1;stroke:none" />
  </g>
</svg>
