<?xml version="1.0" encoding="UTF-8" standalone="no"?>
<svg xmlns="http://www.w3.org/2000/svg" xmlns:sodipodi="http://sodipodi.sourceforge.net/DTD/sodipodi-0.dtd" xmlns:inkscape="http://www.inkscape.org/namespaces/inkscape" sodipodi:docname="tag.svg" version="1.1" width="24px" height="24px" viewBox="0 0 24 24" id="svg50191" inkscape:version="1.3.2 (091e20e, 2023-11-25)">
  <sodipodi:namedview id="nv" pagecolor="#ffffff" inkscape:pageopacity="0"
     inkscape:document-units="px" inkscape:zoom="8" inkscape:cx="12"
     inkscape:cy="12" inkscape:current-layer="layer-icon" />
  <g inkscape:label="Guides" inkscape:groupmode="layer" id="layer-guides"
     style="display:none">
    <rect x="0" y="0" width="24" height="24" id="safe-area"
       style="fill:none;stroke:#ff3b30;stroke-width:0.04;stroke-dasharray:0.5 0.5" />
  </g>
  <g inkscape:label="Icon" inkscape:groupmode="layer" id="layer-icon">
    <path id="tag-p1" d="M11,3.6 H19.6 C20.2,3.6 20.6,4 20.6,4.6 V13.2 C20.6,13.7 20.4,14.2 20,14.6 L10.6,21.4 C10,21.8 9.2,21.7 8.7,21.1 L2.9,13.3 C2.3,12.6 2.4,11.6 3,11.1 L10,3.8 C10.4,3.5 10.7,3.6 11,3.6 Z" style="fill:none;stroke:#000000;stroke-width:1.8;stroke-linecap:round;stroke-linejoin:round;stroke-miterlimit:4" />
    <path id="tag-p2" d="M15.9,7.1m-1.7,0a1.7,1.7 0 1,0 3.4,0a1.7,1.7 0 0,0 -3.4,0" style="fill:#000000;fill-opacity:1;stroke:none" />
  </g>
</svg>
